<?xml version="1.0" standalone="no"?>
<!DOCTYPE svg PUBLIC "-//W3C//DTD SVG 20010904//EN"
 "http://www.w3.org/TR/2001/REC-SVG-20010904/DTD/svg10.dtd">
<svg version="1.0" xmlns="http://www.w3.org/2000/svg"
 width="1280.000000pt" height="1280.000000pt" viewBox="0 0 1280.000000 1280.000000"
 preserveAspectRatio="xMidYMid meet">
<metadata>
Created by potrace 1.16, written by Peter Selinger 2001-2019
</metadata>
<g transform="translate(0.000000,1280.000000) scale(0.100000,-0.100000)"
fill="#000000" stroke="none">
<path d="M8674 11386 c-257 -81 -467 -369 -544 -747 -102 -502 85 -1207 370
-1397 77 -52 126 -66 211 -60 375 27 771 827 710 1435 -21 203 -88 403 -180
536 -38 55 -124 139 -181 177 -95 64 -277 90 -386 56z"/>
<path d="M10498 10894 c-123 -29 -260 -117 -378 -240 -249 -261 -381 -643
-382 -1104 -1 -390 97 -657 276 -753 60 -32 216 -31 299 2 152 60 351 232 497
429 187 251 301 514 340 781 18 118 8 343 -19 446 -89 337 -340 511 -633 439z"/>
<path d="M6930 10751 c-75 -24 -126 -52 -187 -103 -235 -195 -365 -582 -332
-987 39 -495 261 -962 516 -1087 49 -25 70 -29 138 -29 107 0 174 32 271 129
150 151 263 381 334 681 43 179 53 292 47 488 -6 191 -30 312 -89 455 -95 230
-254 399 -426 452 -81 25 -196 26 -272 1z"/>
<path d="M11720 9417 c-326 -98 -613 -411 -759 -830 -84 -241 -116 -433 -108
-662 8 -224 39 -325 133 -425 187 -199 565 -82 935 289 262 264 406 518 464
822 21 110 21 305 -1 401 -34 154 -120 288 -232 359 -113 72 -284 90 -432 46z"/>
<path d="M8315 8509 c-290 -33 -539 -106 -785 -229 -472 -237 -797 -619 -849
-1001 -30 -217 61 -339 295 -398 134 -33 225 -44 644 -71 357 -24 531 -42 728
-75 443 -75 788 -202 1387 -510 419 -215 565 -273 707 -282 113 -7 165 7 227
63 89 80 147 246 158 455 30 583 -362 1257 -967 1664 -313 210 -680 344 -1052
384 -110 12 -388 12 -493 0z"/>
<path d="M3846 6839 c-144 -49 -267 -170 -352 -344 -154 -314 -161 -699 -20
-1119 97 -289 269 -556 429 -665 144 -98 296 -94 430 12 130 102 265 379 322
661 95 469 33 878 -178 1184 -94 136 -234 244 -361 278 -76 20 -200 17 -270
-7z"/>
<path d="M2051 6354 c-113 -30 -198 -91 -271 -196 -182 -259 -189 -696 -17
-1087 143 -323 402 -638 632 -766 335 -187 577 -26 651 435 32 195 16 518 -35
734 -139 580 -578 983 -960 880z"/>
<path d="M5626 6219 c-115 -27 -253 -129 -342 -254 -66 -93 -132 -240 -166
-373 -26 -102 -31 -140 -35 -295 -6 -195 3 -297 43 -467 93 -397 271 -698 471
-796 49 -25 70 -29 138 -29 102 0 165 28 257 114 207 193 364 589 398 1002 23
283 -36 569 -162 784 -50 85 -193 230 -264 267 -98 53 -234 71 -338 47z"/>
<path d="M760 4881 c-79 -25 -116 -47 -173 -100 -69 -63 -122 -149 -153 -245
-36 -109 -45 -325 -20 -461 59 -316 223 -598 500 -862 238 -227 469 -347 666
-347 71 -1 94 4 141 25 98 46 166 138 206 280 28 101 26 416 -5 566 -106 524
-356 909 -706 1085 -150 76 -332 99 -456 59z"/>
<path d="M3995 3970 c-440 -50 -866 -226 -1210 -498 -92 -73 -271 -248 -350
-343 -212 -252 -374 -577 -435 -869 -52 -246 -30 -523 55 -697 31 -62 112
-139 163 -153 59 -16 172 -12 253 10 115 30 223 78 607 271 855 430 1172 516
2117 579 489 32 638 56 761 118 117 59 167 143 167 277 0 109 -32 225 -98 361
-228 469 -779 825 -1440 930 -119 18 -474 27 -590 14z"/>
</g>
</svg>
